<?xml version="1.0" encoding="UTF-8"?>
<!DOCTYPE svg PUBLIC "-//W3C//DTD SVG 1.1//EN" "http://www.w3.org/Graphics/SVG/1.1/DTD/svg11.dtd">
<svg xmlns="http://www.w3.org/2000/svg" version="1.1" width="686px" height="141px" style="shape-rendering:geometricPrecision; text-rendering:geometricPrecision; image-rendering:optimizeQuality; fill-rule:evenodd; clip-rule:evenodd" xmlns:xlink="http://www.w3.org/1999/xlink">
<g><path style="opacity:0.811" fill="#000000" d="M 490.5,35.5 C 492.467,35.2606 494.301,35.5939 496,36.5C 496.755,39.3033 496.422,41.9699 495,44.5C 488.093,52.6508 481.426,60.9841 475,69.5C 466.775,77.3899 458.941,85.5566 451.5,94C 464.465,91.3443 477.465,88.511 490.5,85.5C 499.344,85.2961 508.344,85.6294 517.5,86.5C 517.665,83.4816 517.498,80.4816 517,77.5C 514.392,78.2747 511.892,79.2747 509.5,80.5C 505.925,79.0061 505.591,76.8394 508.5,74C 511.551,72.2771 514.718,70.7771 518,69.5C 519.274,62.8972 519.774,56.2305 519.5,49.5C 521.792,49.2436 523.959,49.5769 526,50.5C 527.228,55.8817 527.395,61.2151 526.5,66.5C 530.306,66.588 533.972,65.9213 537.5,64.5C 538.357,63.2643 539.023,61.931 539.5,60.5C 538.567,56.5705 538.234,52.5705 538.5,48.5C 540.833,48.5 543.167,48.5 545.5,48.5C 547.183,53.4964 548.016,58.4964 548,63.5C 553.613,65.9536 553.613,68.6203 548,71.5C 547.125,77.4817 547.959,83.1484 550.5,88.5C 560.522,76.7953 567.688,63.462 572,48.5C 574.75,47.7089 577.583,47.7089 580.5,48.5C 582.892,59.1769 585.392,69.8435 588,80.5C 590.147,81.1125 592.314,81.7792 594.5,82.5C 593.855,84.4321 592.521,85.5988 590.5,86C 592.202,87.7184 594.035,87.885 596,86.5C 599.086,76.7378 600.752,66.7378 601,56.5C 603.418,54.3199 606.084,53.9865 609,55.5C 610.003,65.1706 613.003,74.1706 618,82.5C 620.346,86.1791 623.346,89.1791 627,91.5C 627.945,91.0946 628.612,90.428 629,89.5C 629.446,86.657 629.946,83.8236 630.5,81C 629.171,71.5292 628.171,62.0292 627.5,52.5C 631.894,51.5751 635.228,52.9085 637.5,56.5C 636.012,59.2514 635.346,62.2514 635.5,65.5C 637.535,74.4931 637.702,83.4931 636,92.5C 631.239,99.5414 625.406,100.375 618.5,95C 613.895,90.2851 609.895,85.1184 606.5,79.5C 604.994,83.359 603.994,87.359 603.5,91.5C 604.577,94.8711 605.577,98.2044 606.5,101.5C 598.318,104.877 594.651,102.21 595.5,93.5C 589.061,94.8649 584.394,92.6983 581.5,87C 579.833,86.8333 578.167,86.6667 576.5,86.5C 571.231,87.6427 565.897,88.476 560.5,89C 558.5,91.6667 556.5,94.3333 554.5,97C 551.653,97.9439 549.153,97.4439 547,95.5C 545.644,96.3802 544.144,96.7135 542.5,96.5C 540.437,88.3052 539.437,79.9718 539.5,71.5C 534.81,71.6186 530.476,72.9519 526.5,75.5C 525.34,79.4589 525.173,83.4589 526,87.5C 529.835,88.9916 530.335,91.1582 527.5,94C 523.525,95.3794 520.691,94.2127 519,90.5C 518.5,91 518,91.5 517.5,92C 495.49,91.9165 474.157,95.5831 453.5,103C 439.848,105.378 436.682,100.878 444,89.5C 457.894,76.9389 470.394,63.1056 481.5,48C 471.494,49.4979 461.494,51.3312 451.5,53.5C 445.933,54.2339 444.1,51.9006 446,46.5C 455.917,45.3198 465.75,43.4865 475.5,41C 480.772,39.6099 485.772,37.7765 490.5,35.5 Z M 574.5,63.5 C 576.61,68.9229 578.277,74.5896 579.5,80.5C 576.296,81.2036 573.129,81.8702 570,82.5C 568.491,81.9103 566.991,81.2436 565.5,80.5C 568.767,74.9647 571.767,69.2981 574.5,63.5 Z"/></g>
<g><path style="opacity:0.796" fill="#000000" d="M 64.5,88.5 C 61.3148,88.9804 58.4815,88.3137 56,86.5C 46.9023,94.6345 36.7356,101.135 25.5,106C 10.8158,109.169 2.81584,103.336 1.5,88.5C 5.17698,73.021 8.01032,57.021 10,40.5C 15.01,38.3388 17.51,40.0055 17.5,45.5C 15.263,59.59 12.5963,73.59 9.5,87.5C 10.7021,98.1994 16.3688,101.699 26.5,98C 35.576,92.7542 44.2427,86.9209 52.5,80.5C 54.3455,72.6279 55.3455,64.7946 55.5,57C 58.0631,56.0819 60.2298,56.5819 62,58.5C 62.4696,64.1747 62.303,69.8413 61.5,75.5C 61.8333,77.5 62.1667,79.5 62.5,81.5C 64.733,83.5694 65.3996,85.9028 64.5,88.5 Z"/></g>
<g><path style="opacity:0.797" fill="#000000" d="M 64.5,88.5 C 66.0174,88.4894 67.1841,87.8228 68,86.5C 76.4474,74.9386 82.7807,62.2719 87,48.5C 89.7499,47.7089 92.5832,47.7089 95.5,48.5C 97.8927,59.1885 100.393,69.8551 103,80.5C 105.041,81.4231 107.208,81.7564 109.5,81.5C 109.863,83.9115 108.863,85.4115 106.5,86C 107.905,87.2692 109.571,87.7692 111.5,87.5C 114.039,76.9691 115.872,66.3024 117,55.5C 120.394,53.7253 123.06,54.392 125,57.5C 125.864,71.566 131.698,82.8993 142.5,91.5C 144.662,88.0205 145.662,84.1872 145.5,80C 144.577,70.5292 143.577,61.3626 142.5,52.5C 144.857,52.3367 147.19,52.5034 149.5,53C 151.41,53.4083 152.41,54.5749 152.5,56.5C 151.051,58.9131 150.384,61.5798 150.5,64.5C 151.385,70.4765 152.052,76.4765 152.5,82.5C 153.328,89.2114 150.995,94.378 145.5,98C 140.324,98.6685 135.824,97.1685 132,93.5C 127.932,89.0435 124.599,84.0435 122,78.5C 120.392,82.7021 119.225,87.0354 118.5,91.5C 119.598,94.8813 120.598,98.2146 121.5,101.5C 113.351,104.877 109.685,102.211 110.5,93.5C 104.061,94.8649 99.3939,92.6983 96.5,87C 94.8333,86.8333 93.1667,86.6667 91.5,86.5C 86.5281,87.4332 81.5281,88.2666 76.5,89C 73.931,91.4794 71.5977,94.146 69.5,97C 67.5273,97.4955 65.5273,97.6621 63.5,97.5C 63.5079,94.4552 63.8413,91.4552 64.5,88.5 Z M 89.5,63.5 C 91.9224,68.8392 93.5891,74.5059 94.5,80.5C 89.8687,81.6616 85.202,81.8283 80.5,81C 83.6254,75.2496 86.6254,69.4162 89.5,63.5 Z"/></g>
<g><path style="opacity:0.811" fill="#000000" d="M 226.5,48.5 C 228.833,48.5 231.167,48.5 233.5,48.5C 233.29,55.8386 231.29,62.672 227.5,69C 227.833,69.3333 228.167,69.6667 228.5,70C 224.847,76.0952 223.847,82.5952 225.5,89.5C 227.307,90.3951 228.64,91.7284 229.5,93.5C 229.333,94.1667 229.167,94.8333 229,95.5C 220.928,96.6694 216.762,93.0027 216.5,84.5C 216.966,81.5078 217.299,78.5078 217.5,75.5C 211.442,77.3957 205.775,76.7291 200.5,73.5C 199.26,67.8783 196.26,66.8783 191.5,70.5C 190.53,78.4269 192.697,85.4269 198,91.5C 199.5,96.6667 197.667,98.5 192.5,97C 190.395,95.8066 188.728,94.1399 187.5,92C 182.778,91.2231 178.111,91.3897 173.5,92.5C 155.897,91.0877 150.731,82.421 158,66.5C 160.575,63.681 162.908,60.681 165,57.5C 167.833,55.3333 170.667,53.1667 173.5,51C 176.817,50.5017 180.15,50.335 183.5,50.5C 183.5,52.5 183.5,54.5 183.5,56.5C 171.946,58.3877 164.946,65.0543 162.5,76.5C 162.943,80.2066 164.943,82.7066 168.5,84C 174.088,85.2889 179.755,85.7889 185.5,85.5C 184.705,81.2147 184.372,76.8814 184.5,72.5C 179.679,74.4559 174.679,75.2892 169.5,75C 168.521,73.2215 168.854,71.5548 170.5,70C 179.334,66.3744 188.334,63.2077 197.5,60.5C 197.36,53.8001 200.36,51.8001 206.5,54.5C 207.429,55.6888 207.762,57.0222 207.5,58.5C 211.182,58.3347 214.848,58.5014 218.5,59C 219.38,60.3561 219.714,61.8561 219.5,63.5C 215.32,63.8618 211.32,64.8618 207.5,66.5C 207.962,68.2906 209.129,69.2906 211,69.5C 213.819,69.0069 216.319,67.8403 218.5,66C 221.838,60.4893 224.505,54.656 226.5,48.5 Z"/></g>
<g><path style="opacity:0.81" fill="#000000" d="M 392.5,50.5 C 395.85,50.335 399.183,50.5017 402.5,51C 403.747,52.4579 403.747,53.9579 402.5,55.5C 398.447,56.3604 394.781,58.0271 391.5,60.5C 389.183,63.3174 386.683,65.9841 384,68.5C 379.926,77.2932 382.426,82.7932 391.5,85C 396.202,85.8283 400.869,85.6616 405.5,84.5C 404.746,81.223 404.246,77.8897 404,74.5C 403.612,73.572 402.945,72.9054 402,72.5C 397.797,74.8385 393.297,75.8385 388.5,75.5C 388.261,73.5328 388.594,71.6995 389.5,70C 405.543,63.4004 421.877,59.567 438.5,58.5C 440.434,61.2716 439.767,63.1049 436.5,64C 426.998,64.7548 417.998,67.2548 409.5,71.5C 410.207,74.9825 410.873,78.4825 411.5,82C 414.796,86.7429 416.796,91.9095 417.5,97.5C 412.643,98.1624 408.977,96.3291 406.5,92C 401.778,91.2231 397.111,91.3897 392.5,92.5C 375.959,90.7094 370.793,82.376 377,67.5C 381.323,61.0128 386.49,55.3461 392.5,50.5 Z"/></g>
<g><path style="opacity:0.804" fill="#000000" d="M 685.5,60.5 C 685.5,62.8333 685.5,65.1667 685.5,67.5C 682.427,68.199 679.427,69.199 676.5,70.5C 675.348,73.1062 675.182,75.7728 676,78.5C 678.327,83.8506 680.827,89.0172 683.5,94C 683.415,95.1074 683.081,96.1074 682.5,97C 677.629,98.4713 674.296,96.8046 672.5,92C 667.581,91.1985 662.748,91.3651 658,92.5C 646.848,92.3392 640.348,86.8392 638.5,76C 640.768,69.9606 643.935,64.4606 648,59.5C 650.921,55.9084 654.421,53.0751 658.5,51C 661.76,50.2165 664.927,50.3832 668,51.5C 668.72,53.1124 668.554,54.6124 667.5,56C 656.556,58.7758 649.89,65.6092 647.5,76.5C 647.474,80.6121 649.474,83.1121 653.5,84C 659.088,85.2889 664.755,85.7889 670.5,85.5C 669.705,81.2147 669.372,76.8814 669.5,72.5C 664.63,74.2947 659.63,75.128 654.5,75C 653.14,73.0624 653.473,71.3957 655.5,70C 665.221,65.904 675.221,62.7374 685.5,60.5 Z"/></g>
<g><path style="opacity:0.8" fill="#000000" d="M 361.5,52.5 C 364.187,52.3359 366.854,52.5026 369.5,53C 373.078,55.5809 373.078,58.4142 369.5,61.5C 371.276,71.4172 371.776,81.4172 371,91.5C 368.633,97.2121 364.467,99.3787 358.5,98C 350.559,93.3919 344.725,86.8919 341,78.5C 340.085,82.3568 339.252,86.5235 338.5,91C 339.274,94.5901 340.274,98.0901 341.5,101.5C 338.214,102.207 334.881,102.54 331.5,102.5C 330.479,96.8704 330.313,91.2037 331,85.5C 334.022,75.6995 335.855,65.6995 336.5,55.5C 339.034,54.2234 341.534,54.2234 344,55.5C 344.9,69.5593 350.4,81.3927 360.5,91C 361.635,91.7494 362.635,91.5827 363.5,90.5C 364.622,77.5647 363.955,64.898 361.5,52.5 Z"/></g>
<g><path style="opacity:0.817" fill="#000000" d="M 318.5,53.5 C 321.802,54.6394 323.968,56.9728 325,60.5C 325.064,66.0253 324.564,71.5253 323.5,77C 324.939,80.276 326.605,83.4426 328.5,86.5C 328.291,87.086 327.957,87.586 327.5,88C 322.61,89.4184 319.11,87.9184 317,83.5C 316.526,76.8204 316.693,70.1537 317.5,63.5C 311.72,63.3112 306.053,63.9778 300.5,65.5C 297.586,64.5957 294.753,64.929 292,66.5C 291.707,71.2779 291.54,75.9446 291.5,80.5C 292,81.5 292.5,82.5 293,83.5C 296.131,81.8343 297.631,82.8343 297.5,86.5C 296.672,90.5165 294.172,92.8498 290,93.5C 286.718,92.885 284.718,90.885 284,87.5C 283.333,80.8333 282.667,74.1667 282,67.5C 278.034,67.5304 273.867,67.3638 269.5,67C 267.531,62.9532 268.864,60.9532 273.5,61C 284.169,59.8807 294.835,58.714 305.5,57.5C 310.19,56.9175 314.523,55.5842 318.5,53.5 Z"/></g>
<g><path style="opacity:0.801" fill="#000000" d="M 237.5,59.5 C 239.833,59.5 242.167,59.5 244.5,59.5C 243.038,65.8868 241.371,72.2202 239.5,78.5C 240.046,80.1347 240.38,81.8014 240.5,83.5C 244.91,82.5998 248.41,80.2664 251,76.5C 253.748,71.6781 255.915,66.6781 257.5,61.5C 259.743,60.5258 262.076,60.1924 264.5,60.5C 265.406,67.9594 266.073,75.2928 266.5,82.5C 271.993,83.3062 272.66,85.4729 268.5,89C 265.833,89.6667 263.167,89.6667 260.5,89C 258.354,86.2052 257.187,83.0386 257,79.5C 254.061,83.5269 250.561,87.0269 246.5,90C 236.893,93.7363 232.226,90.403 232.5,80C 233.439,72.966 235.106,66.1327 237.5,59.5 Z"/></g>
</svg>
